<mxfile host="65bd71144e">
    <diagram name="PÃ¡gina-1" id="uspCIeMHj_jvbdZ995aZ">
        <mxGraphModel dx="6787" dy="6362" grid="1" gridSize="10" guides="1" tooltips="1" connect="1" arrows="1" fold="1" page="1" pageScale="1" pageWidth="827" pageHeight="1169" math="0" shadow="0">
            <root>
                <mxCell id="0"/>
                <mxCell id="1" parent="0"/>
                <mxCell id="JKM60RJiILoYHjyXOHw2-165" value="" style="rounded=0;whiteSpace=wrap;html=1;align=left;" parent="1" vertex="1">
                    <mxGeometry x="4230" y="-130" width="1300" height="1100" as="geometry"/>
                </mxCell>
                <mxCell id="JKM60RJiILoYHjyXOHw2-108" value="" style="rounded=0;whiteSpace=wrap;html=1;align=left;" parent="1" vertex="1">
                    <mxGeometry x="2620" y="-130" width="1550" height="1380" as="geometry"/>
                </mxCell>
                <mxCell id="JKM60RJiILoYHjyXOHw2-78" value="" style="rounded=0;whiteSpace=wrap;html=1;align=left;" parent="1" vertex="1">
                    <mxGeometry x="754" y="-120" width="1766" height="1380" as="geometry"/>
                </mxCell>
                <mxCell id="Du9WEqGjuzSHDE5kGZwM-51" value="" style="rounded=0;whiteSpace=wrap;html=1;" parent="1" vertex="1">
                    <mxGeometry x="-480" y="30" width="1100" height="910" as="geometry"/>
                </mxCell>
                <mxCell id="Du9WEqGjuzSHDE5kGZwM-22" value="Infrastructure Layer" style="whiteSpace=wrap;strokeWidth=2;align=left;verticalAlign=top;" parent="1" vertex="1">
                    <mxGeometry x="27" y="560" width="425" height="290" as="geometry"/>
                </mxCell>
                <mxCell id="Du9WEqGjuzSHDE5kGZwM-23" value="Application Layer" style="whiteSpace=wrap;strokeWidth=2;align=left;verticalAlign=top;" parent="1" vertex="1">
                    <mxGeometry x="-65" y="382" width="611" height="128" as="geometry"/>
                </mxCell>
                <mxCell id="Du9WEqGjuzSHDE5kGZwM-24" value="Presentation Layer" style="whiteSpace=wrap;strokeWidth=2;align=left;verticalAlign=top;" parent="1" vertex="1">
                    <mxGeometry x="10.5" y="210" width="460" height="128" as="geometry"/>
                </mxCell>
                <mxCell id="Du9WEqGjuzSHDE5kGZwM-25" value="Client" style="whiteSpace=wrap;strokeWidth=2;align=left;verticalAlign=top;" parent="1" vertex="1">
                    <mxGeometry x="124.5" y="50" width="230" height="104" as="geometry"/>
                </mxCell>
                <mxCell id="JKM60RJiILoYHjyXOHw2-13" style="edgeStyle=orthogonalEdgeStyle;rounded=0;orthogonalLoop=1;jettySize=auto;html=1;entryX=0.5;entryY=0;entryDx=0;entryDy=0;" parent="1" source="Du9WEqGjuzSHDE5kGZwM-27" target="Du9WEqGjuzSHDE5kGZwM-29" edge="1">
                    <mxGeometry relative="1" as="geometry"/>
                </mxCell>
                <mxCell id="Du9WEqGjuzSHDE5kGZwM-27" value="UI" style="whiteSpace=wrap;strokeWidth=2;fillColor=#f8cecc;strokeColor=#b85450;" parent="1" vertex="1">
                    <mxGeometry x="171.5" y="75" width="138" height="54" as="geometry"/>
                </mxCell>
                <mxCell id="JKM60RJiILoYHjyXOHw2-15" style="edgeStyle=orthogonalEdgeStyle;rounded=0;orthogonalLoop=1;jettySize=auto;html=1;entryX=0.5;entryY=0;entryDx=0;entryDy=0;" parent="1" source="Du9WEqGjuzSHDE5kGZwM-29" target="Du9WEqGjuzSHDE5kGZwM-31" edge="1">
                    <mxGeometry relative="1" as="geometry"/>
                </mxCell>
                <mxCell id="Du9WEqGjuzSHDE5kGZwM-29" value="API Gateway / Load Balancer" style="whiteSpace=wrap;strokeWidth=2;fillColor=#f5f5f5;fontColor=#333333;strokeColor=#666666;" parent="1" vertex="1">
                    <mxGeometry x="109.5" y="235" width="260" height="78" as="geometry"/>
                </mxCell>
                <mxCell id="Du9WEqGjuzSHDE5kGZwM-30" value="Inventory Command Service&#xa;Write Operations" style="whiteSpace=wrap;strokeWidth=2;fillColor=#e1d5e7;strokeColor=#9673a6;" parent="1" vertex="1">
                    <mxGeometry x="-30" y="407" width="260" height="78" as="geometry"/>
                </mxCell>
                <mxCell id="Du9WEqGjuzSHDE5kGZwM-31" value="Inventory Query Service&#xa;Read Operations" style="whiteSpace=wrap;strokeWidth=2;fillColor=#d5e8d4;strokeColor=#82b366;" parent="1" vertex="1">
                    <mxGeometry x="279" y="407" width="231" height="78" as="geometry"/>
                </mxCell>
                <mxCell id="Du9WEqGjuzSHDE5kGZwM-32" value="Event Store&#xa;JSON" style="shape=cylinder3;boundedLbl=1;backgroundOutline=1;size=10;strokeWidth=2;whiteSpace=wrap;fillColor=#fff2cc;strokeColor=#d6b656;" parent="1" vertex="1">
                    <mxGeometry x="76" y="585" width="106" height="97" as="geometry"/>
                </mxCell>
                <mxCell id="Du9WEqGjuzSHDE5kGZwM-33" value="Read Model&#xa;JSON/Cache" style="shape=cylinder3;boundedLbl=1;backgroundOutline=1;size=10;strokeWidth=2;whiteSpace=wrap;fillColor=#f8cecc;strokeColor=#b85450;" parent="1" vertex="1">
                    <mxGeometry x="309.5" y="722" width="109" height="98" as="geometry"/>
                </mxCell>
                <mxCell id="JKM60RJiILoYHjyXOHw2-9" style="edgeStyle=orthogonalEdgeStyle;rounded=0;orthogonalLoop=1;jettySize=auto;html=1;" parent="1" source="Du9WEqGjuzSHDE5kGZwM-34" target="Du9WEqGjuzSHDE5kGZwM-33" edge="1">
                    <mxGeometry relative="1" as="geometry">
                        <Array as="points">
                            <mxPoint x="250" y="771"/>
                            <mxPoint x="250" y="771"/>
                        </Array>
                    </mxGeometry>
                </mxCell>
                <mxCell id="Du9WEqGjuzSHDE5kGZwM-34" value="Event Bus&#xa;In-Memory" style="whiteSpace=wrap;strokeWidth=2;fillColor=#d5e8d4;strokeColor=#82b366;" parent="1" vertex="1">
                    <mxGeometry x="62" y="732" width="135" height="78" as="geometry"/>
                </mxCell>
                <mxCell id="Du9WEqGjuzSHDE5kGZwM-44" value="" style="curved=1;startArrow=none;endArrow=block;exitX=0.5;exitY=1;entryX=0.5;entryY=0.01;rounded=0;" parent="1" source="Du9WEqGjuzSHDE5kGZwM-32" target="Du9WEqGjuzSHDE5kGZwM-34" edge="1">
                    <mxGeometry relative="1" as="geometry">
                        <Array as="points"/>
                    </mxGeometry>
                </mxCell>
                <mxCell id="JKM60RJiILoYHjyXOHw2-3" value="" style="group" parent="1" vertex="1" connectable="0">
                    <mxGeometry x="-390" y="631" width="260" height="280" as="geometry"/>
                </mxCell>
                <mxCell id="Du9WEqGjuzSHDE5kGZwM-21" value="" style="whiteSpace=wrap;strokeWidth=2;" parent="JKM60RJiILoYHjyXOHw2-3" vertex="1">
                    <mxGeometry width="260" height="280" as="geometry"/>
                </mxCell>
                <mxCell id="Du9WEqGjuzSHDE5kGZwM-35" value="Store Sync Worker 1" style="whiteSpace=wrap;strokeWidth=2;fillColor=#f5f5f5;fontColor=#333333;strokeColor=#666666;" parent="JKM60RJiILoYHjyXOHw2-3" vertex="1">
                    <mxGeometry x="30" y="30" width="203" height="54" as="geometry"/>
                </mxCell>
                <mxCell id="Du9WEqGjuzSHDE5kGZwM-36" value="Store Sync Worker 2" style="whiteSpace=wrap;strokeWidth=2;fillColor=#f5f5f5;fontColor=#333333;strokeColor=#666666;" parent="JKM60RJiILoYHjyXOHw2-3" vertex="1">
                    <mxGeometry x="30" y="110" width="203" height="54" as="geometry"/>
                </mxCell>
                <mxCell id="JKM60RJiILoYHjyXOHw2-2" value="Store Sync Worker N" style="whiteSpace=wrap;strokeWidth=2;fillColor=#f5f5f5;fontColor=#333333;strokeColor=#666666;" parent="JKM60RJiILoYHjyXOHw2-3" vertex="1">
                    <mxGeometry x="30" y="190" width="203" height="54" as="geometry"/>
                </mxCell>
                <mxCell id="Du9WEqGjuzSHDE5kGZwM-52" value="&lt;font style=&quot;font-size: 20px;&quot;&gt;Arquitetura Geral - CQRS&lt;/font&gt;" style="text;html=1;align=center;verticalAlign=middle;whiteSpace=wrap;rounded=0;" parent="1" vertex="1">
                    <mxGeometry x="-530" y="30" width="390" height="63" as="geometry"/>
                </mxCell>
                <mxCell id="JKM60RJiILoYHjyXOHw2-5" style="edgeStyle=orthogonalEdgeStyle;rounded=0;orthogonalLoop=1;jettySize=auto;html=1;entryX=1;entryY=0.5;entryDx=0;entryDy=0;shadow=0;flowAnimation=0;jumpStyle=none;" parent="1" source="Du9WEqGjuzSHDE5kGZwM-34" target="Du9WEqGjuzSHDE5kGZwM-35" edge="1">
                    <mxGeometry relative="1" as="geometry"/>
                </mxCell>
                <mxCell id="JKM60RJiILoYHjyXOHw2-7" style="edgeStyle=orthogonalEdgeStyle;rounded=0;orthogonalLoop=1;jettySize=auto;html=1;entryX=1;entryY=0.5;entryDx=0;entryDy=0;" parent="1" source="Du9WEqGjuzSHDE5kGZwM-34" target="Du9WEqGjuzSHDE5kGZwM-36" edge="1">
                    <mxGeometry relative="1" as="geometry"/>
                </mxCell>
                <mxCell id="JKM60RJiILoYHjyXOHw2-8" style="edgeStyle=orthogonalEdgeStyle;rounded=0;orthogonalLoop=1;jettySize=auto;html=1;entryX=1;entryY=0.5;entryDx=0;entryDy=0;" parent="1" source="Du9WEqGjuzSHDE5kGZwM-34" target="JKM60RJiILoYHjyXOHw2-2" edge="1">
                    <mxGeometry relative="1" as="geometry"/>
                </mxCell>
                <mxCell id="JKM60RJiILoYHjyXOHw2-10" style="edgeStyle=orthogonalEdgeStyle;rounded=0;orthogonalLoop=1;jettySize=auto;html=1;entryX=0.5;entryY=0;entryDx=0;entryDy=0;entryPerimeter=0;" parent="1" source="Du9WEqGjuzSHDE5kGZwM-30" target="Du9WEqGjuzSHDE5kGZwM-32" edge="1">
                    <mxGeometry relative="1" as="geometry"/>
                </mxCell>
                <mxCell id="JKM60RJiILoYHjyXOHw2-12" style="edgeStyle=orthogonalEdgeStyle;rounded=0;orthogonalLoop=1;jettySize=auto;html=1;entryX=0.5;entryY=0;entryDx=0;entryDy=0;entryPerimeter=0;" parent="1" source="Du9WEqGjuzSHDE5kGZwM-31" target="Du9WEqGjuzSHDE5kGZwM-33" edge="1">
                    <mxGeometry relative="1" as="geometry"/>
                </mxCell>
                <mxCell id="JKM60RJiILoYHjyXOHw2-14" style="edgeStyle=orthogonalEdgeStyle;rounded=0;orthogonalLoop=1;jettySize=auto;html=1;entryX=0.463;entryY=0.062;entryDx=0;entryDy=0;entryPerimeter=0;" parent="1" source="Du9WEqGjuzSHDE5kGZwM-29" target="Du9WEqGjuzSHDE5kGZwM-30" edge="1">
                    <mxGeometry relative="1" as="geometry"/>
                </mxCell>
                <mxCell id="JKM60RJiILoYHjyXOHw2-47" value="Client" style="shape=umlLifeline;perimeter=lifelinePerimeter;whiteSpace=wrap;container=1;dropTarget=0;collapsible=0;recursiveResize=0;outlineConnect=0;portConstraint=eastwest;newEdgeStyle={&quot;edgeStyle&quot;:&quot;elbowEdgeStyle&quot;,&quot;elbow&quot;:&quot;vertical&quot;,&quot;curved&quot;:0,&quot;rounded&quot;:0};size=65;fillColor=#f5f5f5;fontColor=#333333;strokeColor=#666666;" parent="1" vertex="1">
                    <mxGeometry x="810" y="-39" width="150" height="1248" as="geometry"/>
                </mxCell>
                <mxCell id="JKM60RJiILoYHjyXOHw2-48" value="API" style="shape=umlLifeline;perimeter=lifelinePerimeter;whiteSpace=wrap;container=1;dropTarget=0;collapsible=0;recursiveResize=0;outlineConnect=0;portConstraint=eastwest;newEdgeStyle={&quot;edgeStyle&quot;:&quot;elbowEdgeStyle&quot;,&quot;elbow&quot;:&quot;vertical&quot;,&quot;curved&quot;:0,&quot;rounded&quot;:0};size=65;fillColor=#f5f5f5;fontColor=#333333;strokeColor=#666666;" parent="1" vertex="1">
                    <mxGeometry x="1039" y="-39" width="150" height="1248" as="geometry"/>
                </mxCell>
                <mxCell id="JKM60RJiILoYHjyXOHw2-49" value="CommandService" style="shape=umlLifeline;perimeter=lifelinePerimeter;whiteSpace=wrap;container=1;dropTarget=0;collapsible=0;recursiveResize=0;outlineConnect=0;portConstraint=eastwest;newEdgeStyle={&quot;edgeStyle&quot;:&quot;elbowEdgeStyle&quot;,&quot;elbow&quot;:&quot;vertical&quot;,&quot;curved&quot;:0,&quot;rounded&quot;:0};size=65;fillColor=#f5f5f5;fontColor=#333333;strokeColor=#666666;" parent="1" vertex="1">
                    <mxGeometry x="1251" y="-39" width="150" height="1248" as="geometry"/>
                </mxCell>
                <mxCell id="JKM60RJiILoYHjyXOHw2-50" value="EventStore" style="shape=umlLifeline;perimeter=lifelinePerimeter;whiteSpace=wrap;container=1;dropTarget=0;collapsible=0;recursiveResize=0;outlineConnect=0;portConstraint=eastwest;newEdgeStyle={&quot;edgeStyle&quot;:&quot;elbowEdgeStyle&quot;,&quot;elbow&quot;:&quot;vertical&quot;,&quot;curved&quot;:0,&quot;rounded&quot;:0};size=65;fillColor=#f5f5f5;fontColor=#333333;strokeColor=#666666;" parent="1" vertex="1">
                    <mxGeometry x="1499" y="-39" width="150" height="1248" as="geometry"/>
                </mxCell>
                <mxCell id="JKM60RJiILoYHjyXOHw2-51" value="EventBus" style="shape=umlLifeline;perimeter=lifelinePerimeter;whiteSpace=wrap;container=1;dropTarget=0;collapsible=0;recursiveResize=0;outlineConnect=0;portConstraint=eastwest;newEdgeStyle={&quot;edgeStyle&quot;:&quot;elbowEdgeStyle&quot;,&quot;elbow&quot;:&quot;vertical&quot;,&quot;curved&quot;:0,&quot;rounded&quot;:0};size=65;fillColor=#f5f5f5;fontColor=#333333;strokeColor=#666666;" parent="1" vertex="1">
                    <mxGeometry x="1699" y="-39" width="150" height="1248" as="geometry"/>
                </mxCell>
                <mxCell id="JKM60RJiILoYHjyXOHw2-52" value="ReadModel" style="shape=umlLifeline;perimeter=lifelinePerimeter;whiteSpace=wrap;container=1;dropTarget=0;collapsible=0;recursiveResize=0;outlineConnect=0;portConstraint=eastwest;newEdgeStyle={&quot;edgeStyle&quot;:&quot;elbowEdgeStyle&quot;,&quot;elbow&quot;:&quot;vertical&quot;,&quot;curved&quot;:0,&quot;rounded&quot;:0};size=65;fillColor=#f5f5f5;fontColor=#333333;strokeColor=#666666;" parent="1" vertex="1">
                    <mxGeometry x="1899" y="-39" width="150" height="1248" as="geometry"/>
                </mxCell>
                <mxCell id="JKM60RJiILoYHjyXOHw2-53" value="Cache" style="shape=umlLifeline;perimeter=lifelinePerimeter;whiteSpace=wrap;container=1;dropTarget=0;collapsible=0;recursiveResize=0;outlineConnect=0;portConstraint=eastwest;newEdgeStyle={&quot;edgeStyle&quot;:&quot;elbowEdgeStyle&quot;,&quot;elbow&quot;:&quot;vertical&quot;,&quot;curved&quot;:0,&quot;rounded&quot;:0};size=65;fillColor=#f5f5f5;fontColor=#333333;strokeColor=#666666;" parent="1" vertex="1">
                    <mxGeometry x="2099" y="-39" width="150" height="1248" as="geometry"/>
                </mxCell>
                <mxCell id="JKM60RJiILoYHjyXOHw2-54" value="SyncWorker" style="shape=umlLifeline;perimeter=lifelinePerimeter;whiteSpace=wrap;container=1;dropTarget=0;collapsible=0;recursiveResize=0;outlineConnect=0;portConstraint=eastwest;newEdgeStyle={&quot;edgeStyle&quot;:&quot;elbowEdgeStyle&quot;,&quot;elbow&quot;:&quot;vertical&quot;,&quot;curved&quot;:0,&quot;rounded&quot;:0};size=65;fillColor=#f5f5f5;fontColor=#333333;strokeColor=#666666;" parent="1" vertex="1">
                    <mxGeometry x="2299" y="-39" width="150" height="1248" as="geometry"/>
                </mxCell>
                <mxCell id="JKM60RJiILoYHjyXOHw2-55" value="par" style="shape=umlFrame;dashed=1;pointerEvents=0;dropTarget=0;strokeColor=#B3B3B3;height=20;width=30" parent="1" vertex="1">
                    <mxGeometry x="1763" y="593" width="622" height="202" as="geometry"/>
                </mxCell>
                <mxCell id="JKM60RJiILoYHjyXOHw2-56" value="[Parallel Event Processing]" style="text;strokeColor=none;fillColor=none;align=center;verticalAlign=middle;whiteSpace=wrap;" parent="JKM60RJiILoYHjyXOHw2-55" vertex="1">
                    <mxGeometry x="30" width="592" height="20" as="geometry"/>
                </mxCell>
                <mxCell id="JKM60RJiILoYHjyXOHw2-57" value="alt" style="shape=umlFrame;dashed=1;pointerEvents=0;dropTarget=0;strokeColor=#B3B3B3;height=20;width=30" parent="1" vertex="1">
                    <mxGeometry x="874" y="241" width="1521" height="824" as="geometry"/>
                </mxCell>
                <mxCell id="JKM60RJiILoYHjyXOHw2-58" value="[Concurrency Conflict]" style="text;strokeColor=none;fillColor=none;align=center;verticalAlign=middle;whiteSpace=wrap;" parent="JKM60RJiILoYHjyXOHw2-57" vertex="1">
                    <mxGeometry x="30" width="1491" height="20" as="geometry"/>
                </mxCell>
                <mxCell id="JKM60RJiILoYHjyXOHw2-59" value="[Success]" style="shape=line;dashed=1;whiteSpace=wrap;verticalAlign=top;labelPosition=center;verticalLabelPosition=middle;align=center;strokeColor=#B3B3B3;" parent="JKM60RJiILoYHjyXOHw2-57" vertex="1">
                    <mxGeometry y="207" width="1521" height="4" as="geometry"/>
                </mxCell>
                <mxCell id="JKM60RJiILoYHjyXOHw2-60" value="POST /inventory/stock" style="verticalAlign=bottom;edgeStyle=elbowEdgeStyle;elbow=vertical;curved=0;rounded=0;endArrow=block;" parent="1" source="JKM60RJiILoYHjyXOHw2-47" target="JKM60RJiILoYHjyXOHw2-48" edge="1">
                    <mxGeometry relative="1" as="geometry">
                        <Array as="points">
                            <mxPoint x="1008" y="68"/>
                        </Array>
                    </mxGeometry>
                </mxCell>
                <mxCell id="JKM60RJiILoYHjyXOHw2-61" value="AddStockCommand" style="verticalAlign=bottom;edgeStyle=elbowEdgeStyle;elbow=vertical;curved=0;rounded=0;endArrow=block;" parent="1" source="JKM60RJiILoYHjyXOHw2-48" target="JKM60RJiILoYHjyXOHw2-49" edge="1">
                    <mxGeometry relative="1" as="geometry">
                        <Array as="points">
                            <mxPoint x="1229" y="120"/>
                        </Array>
                    </mxGeometry>
                </mxCell>
                <mxCell id="JKM60RJiILoYHjyXOHw2-62" value="Save StockAddedEvent(v)" style="verticalAlign=bottom;edgeStyle=elbowEdgeStyle;elbow=vertical;curved=0;rounded=0;endArrow=block;" parent="1" source="JKM60RJiILoYHjyXOHw2-49" target="JKM60RJiILoYHjyXOHw2-50" edge="1">
                    <mxGeometry relative="1" as="geometry">
                        <Array as="points">
                            <mxPoint x="1459" y="221"/>
                        </Array>
                    </mxGeometry>
                </mxCell>
                <mxCell id="JKM60RJiILoYHjyXOHw2-63" value="ConcurrencyException" style="verticalAlign=bottom;edgeStyle=elbowEdgeStyle;elbow=vertical;curved=0;rounded=0;dashed=1;dashPattern=2 3;endArrow=block;" parent="1" source="JKM60RJiILoYHjyXOHw2-50" target="JKM60RJiILoYHjyXOHw2-49" edge="1">
                    <mxGeometry relative="1" as="geometry">
                        <Array as="points">
                            <mxPoint x="1462" y="319"/>
                        </Array>
                    </mxGeometry>
                </mxCell>
                <mxCell id="JKM60RJiILoYHjyXOHw2-64" value="409 Conflict" style="verticalAlign=bottom;edgeStyle=elbowEdgeStyle;elbow=vertical;curved=0;rounded=0;dashed=1;dashPattern=2 3;endArrow=block;" parent="1" source="JKM60RJiILoYHjyXOHw2-49" target="JKM60RJiILoYHjyXOHw2-48" edge="1">
                    <mxGeometry relative="1" as="geometry">
                        <Array as="points">
                            <mxPoint x="1232" y="371"/>
                        </Array>
                    </mxGeometry>
                </mxCell>
                <mxCell id="JKM60RJiILoYHjyXOHw2-65" value="Retry with new version" style="verticalAlign=bottom;edgeStyle=elbowEdgeStyle;elbow=vertical;curved=0;rounded=0;dashed=1;dashPattern=2 3;endArrow=block;" parent="1" source="JKM60RJiILoYHjyXOHw2-48" target="JKM60RJiILoYHjyXOHw2-47" edge="1">
                    <mxGeometry relative="1" as="geometry">
                        <Array as="points">
                            <mxPoint x="1011" y="423"/>
                        </Array>
                    </mxGeometry>
                </mxCell>
                <mxCell id="JKM60RJiILoYHjyXOHw2-66" value="Event saved (v+1)" style="verticalAlign=bottom;edgeStyle=elbowEdgeStyle;elbow=vertical;curved=0;rounded=0;dashed=1;dashPattern=2 3;endArrow=block;" parent="1" source="JKM60RJiILoYHjyXOHw2-50" target="JKM60RJiILoYHjyXOHw2-49" edge="1">
                    <mxGeometry relative="1" as="geometry">
                        <Array as="points">
                            <mxPoint x="1462" y="521"/>
                        </Array>
                    </mxGeometry>
                </mxCell>
                <mxCell id="JKM60RJiILoYHjyXOHw2-67" value="Publish StockAddedEvent" style="verticalAlign=bottom;edgeStyle=elbowEdgeStyle;elbow=vertical;curved=0;rounded=0;endArrow=block;" parent="1" source="JKM60RJiILoYHjyXOHw2-49" target="JKM60RJiILoYHjyXOHw2-51" edge="1">
                    <mxGeometry relative="1" as="geometry">
                        <Array as="points">
                            <mxPoint x="1559" y="573"/>
                        </Array>
                    </mxGeometry>
                </mxCell>
                <mxCell id="JKM60RJiILoYHjyXOHw2-68" value="Update projection" style="verticalAlign=bottom;edgeStyle=elbowEdgeStyle;elbow=vertical;curved=0;rounded=0;endArrow=block;" parent="1" source="JKM60RJiILoYHjyXOHw2-51" target="JKM60RJiILoYHjyXOHw2-52" edge="1">
                    <mxGeometry relative="1" as="geometry">
                        <Array as="points">
                            <mxPoint x="1883" y="671"/>
                        </Array>
                    </mxGeometry>
                </mxCell>
                <mxCell id="JKM60RJiILoYHjyXOHw2-69" value="Invalidate cache" style="verticalAlign=bottom;edgeStyle=elbowEdgeStyle;elbow=vertical;curved=0;rounded=0;endArrow=block;" parent="1" source="JKM60RJiILoYHjyXOHw2-51" target="JKM60RJiILoYHjyXOHw2-53" edge="1">
                    <mxGeometry relative="1" as="geometry">
                        <Array as="points">
                            <mxPoint x="1983" y="723"/>
                        </Array>
                    </mxGeometry>
                </mxCell>
                <mxCell id="JKM60RJiILoYHjyXOHw2-70" value="Notify sync required" style="verticalAlign=bottom;edgeStyle=elbowEdgeStyle;elbow=vertical;curved=0;rounded=0;endArrow=block;" parent="1" source="JKM60RJiILoYHjyXOHw2-51" target="JKM60RJiILoYHjyXOHw2-54" edge="1">
                    <mxGeometry relative="1" as="geometry">
                        <Array as="points">
                            <mxPoint x="2083" y="775"/>
                        </Array>
                    </mxGeometry>
                </mxCell>
                <mxCell id="JKM60RJiILoYHjyXOHw2-71" value="Updated" style="verticalAlign=bottom;edgeStyle=elbowEdgeStyle;elbow=vertical;curved=0;rounded=0;dashed=1;dashPattern=2 3;endArrow=block;" parent="1" source="JKM60RJiILoYHjyXOHw2-52" target="JKM60RJiILoYHjyXOHw2-51" edge="1">
                    <mxGeometry relative="1" as="geometry">
                        <Array as="points">
                            <mxPoint x="1886" y="837"/>
                        </Array>
                    </mxGeometry>
                </mxCell>
                <mxCell id="JKM60RJiILoYHjyXOHw2-72" value="Invalidated" style="verticalAlign=bottom;edgeStyle=elbowEdgeStyle;elbow=vertical;curved=0;rounded=0;dashed=1;dashPattern=2 3;endArrow=block;" parent="1" source="JKM60RJiILoYHjyXOHw2-53" target="JKM60RJiILoYHjyXOHw2-51" edge="1">
                    <mxGeometry relative="1" as="geometry">
                        <Array as="points">
                            <mxPoint x="1986" y="889"/>
                        </Array>
                    </mxGeometry>
                </mxCell>
                <mxCell id="JKM60RJiILoYHjyXOHw2-73" value="Acknowledged" style="verticalAlign=bottom;edgeStyle=elbowEdgeStyle;elbow=vertical;curved=0;rounded=0;dashed=1;dashPattern=2 3;endArrow=block;" parent="1" source="JKM60RJiILoYHjyXOHw2-54" target="JKM60RJiILoYHjyXOHw2-51" edge="1">
                    <mxGeometry relative="1" as="geometry">
                        <Array as="points">
                            <mxPoint x="2086" y="941"/>
                        </Array>
                    </mxGeometry>
                </mxCell>
                <mxCell id="JKM60RJiILoYHjyXOHw2-74" value="201 Created" style="verticalAlign=bottom;edgeStyle=elbowEdgeStyle;elbow=vertical;curved=0;rounded=0;dashed=1;dashPattern=2 3;endArrow=block;" parent="1" source="JKM60RJiILoYHjyXOHw2-49" target="JKM60RJiILoYHjyXOHw2-48" edge="1">
                    <mxGeometry relative="1" as="geometry">
                        <Array as="points">
                            <mxPoint x="1232" y="993"/>
                        </Array>
                    </mxGeometry>
                </mxCell>
                <mxCell id="JKM60RJiILoYHjyXOHw2-75" value="Success response" style="verticalAlign=bottom;edgeStyle=elbowEdgeStyle;elbow=vertical;curved=0;rounded=0;dashed=1;dashPattern=2 3;endArrow=block;" parent="1" source="JKM60RJiILoYHjyXOHw2-48" target="JKM60RJiILoYHjyXOHw2-47" edge="1">
                    <mxGeometry relative="1" as="geometry">
                        <Array as="points">
                            <mxPoint x="1011" y="1045"/>
                        </Array>
                    </mxGeometry>
                </mxCell>
                <mxCell id="JKM60RJiILoYHjyXOHw2-76" value="Validate business rules" style="fillColor=#ffff88;strokeColor=#9E916F;" parent="1" vertex="1">
                    <mxGeometry x="1236" y="140" width="180" height="49" as="geometry"/>
                </mxCell>
                <mxCell id="JKM60RJiILoYHjyXOHw2-77" value="Async sync to stores" style="fillColor=#ffff88;strokeColor=#9E916F;" parent="1" vertex="1">
                    <mxGeometry x="2292" y="1075" width="164" height="49" as="geometry"/>
                </mxCell>
                <mxCell id="JKM60RJiILoYHjyXOHw2-79" value="&lt;font style=&quot;font-size: 20px;&quot;&gt;Event Sourcing Flow&lt;/font&gt;" style="text;html=1;align=center;verticalAlign=middle;whiteSpace=wrap;rounded=0;" parent="1" vertex="1">
                    <mxGeometry x="670" y="-130" width="390" height="63" as="geometry"/>
                </mxCell>
                <mxCell id="JKM60RJiILoYHjyXOHw2-80" value="Client" style="shape=umlLifeline;perimeter=lifelinePerimeter;whiteSpace=wrap;container=1;dropTarget=0;collapsible=0;recursiveResize=0;outlineConnect=0;portConstraint=eastwest;newEdgeStyle={&quot;edgeStyle&quot;:&quot;elbowEdgeStyle&quot;,&quot;elbow&quot;:&quot;vertical&quot;,&quot;curved&quot;:0,&quot;rounded&quot;:0};size=65;fillColor=#f5f5f5;fontColor=#333333;strokeColor=#666666;" parent="1" vertex="1">
                    <mxGeometry x="2780" y="-28" width="150" height="1196" as="geometry"/>
                </mxCell>
                <mxCell id="JKM60RJiILoYHjyXOHw2-81" value="API" style="shape=umlLifeline;perimeter=lifelinePerimeter;whiteSpace=wrap;container=1;dropTarget=0;collapsible=0;recursiveResize=0;outlineConnect=0;portConstraint=eastwest;newEdgeStyle={&quot;edgeStyle&quot;:&quot;elbowEdgeStyle&quot;,&quot;elbow&quot;:&quot;vertical&quot;,&quot;curved&quot;:0,&quot;rounded&quot;:0};size=65;fillColor=#f5f5f5;fontColor=#333333;strokeColor=#666666;" parent="1" vertex="1">
                    <mxGeometry x="3052" y="-28" width="150" height="1196" as="geometry"/>
                </mxCell>
                <mxCell id="JKM60RJiILoYHjyXOHw2-82" value="QueryService" style="shape=umlLifeline;perimeter=lifelinePerimeter;whiteSpace=wrap;container=1;dropTarget=0;collapsible=0;recursiveResize=0;outlineConnect=0;portConstraint=eastwest;newEdgeStyle={&quot;edgeStyle&quot;:&quot;elbowEdgeStyle&quot;,&quot;elbow&quot;:&quot;vertical&quot;,&quot;curved&quot;:0,&quot;rounded&quot;:0};size=65;fillColor=#f5f5f5;fontColor=#333333;strokeColor=#666666;" parent="1" vertex="1">
                    <mxGeometry x="3288" y="-28" width="150" height="1196" as="geometry"/>
                </mxCell>
                <mxCell id="JKM60RJiILoYHjyXOHw2-83" value="Cache" style="shape=umlLifeline;perimeter=lifelinePerimeter;whiteSpace=wrap;container=1;dropTarget=0;collapsible=0;recursiveResize=0;outlineConnect=0;portConstraint=eastwest;newEdgeStyle={&quot;edgeStyle&quot;:&quot;elbowEdgeStyle&quot;,&quot;elbow&quot;:&quot;vertical&quot;,&quot;curved&quot;:0,&quot;rounded&quot;:0};size=65;fillColor=#f5f5f5;fontColor=#333333;strokeColor=#666666;" parent="1" vertex="1">
                    <mxGeometry x="3527" y="-28" width="150" height="1196" as="geometry"/>
                </mxCell>
                <mxCell id="JKM60RJiILoYHjyXOHw2-84" value="ReadModel" style="shape=umlLifeline;perimeter=lifelinePerimeter;whiteSpace=wrap;container=1;dropTarget=0;collapsible=0;recursiveResize=0;outlineConnect=0;portConstraint=eastwest;newEdgeStyle={&quot;edgeStyle&quot;:&quot;elbowEdgeStyle&quot;,&quot;elbow&quot;:&quot;vertical&quot;,&quot;curved&quot;:0,&quot;rounded&quot;:0};size=65;fillColor=#f5f5f5;fontColor=#333333;strokeColor=#666666;" parent="1" vertex="1">
                    <mxGeometry x="3727" y="-28" width="150" height="1196" as="geometry"/>
                </mxCell>
                <mxCell id="JKM60RJiILoYHjyXOHw2-85" value="CircuitBreaker" style="shape=umlLifeline;perimeter=lifelinePerimeter;whiteSpace=wrap;container=1;dropTarget=0;collapsible=0;recursiveResize=0;outlineConnect=0;portConstraint=eastwest;newEdgeStyle={&quot;edgeStyle&quot;:&quot;elbowEdgeStyle&quot;,&quot;elbow&quot;:&quot;vertical&quot;,&quot;curved&quot;:0,&quot;rounded&quot;:0};size=65;fillColor=#f5f5f5;fontColor=#333333;strokeColor=#666666;" parent="1" vertex="1">
                    <mxGeometry x="3927" y="-28" width="150" height="1196" as="geometry"/>
                </mxCell>
                <mxCell id="JKM60RJiILoYHjyXOHw2-86" value="alt" style="shape=umlFrame;dashed=1;pointerEvents=0;dropTarget=0;strokeColor=#B3B3B3;height=20;width=30" parent="1" vertex="1">
                    <mxGeometry x="2844" y="503" width="1169" height="508" as="geometry"/>
                </mxCell>
                <mxCell id="JKM60RJiILoYHjyXOHw2-87" value="[Circuit Open]" style="text;strokeColor=none;fillColor=none;align=center;verticalAlign=middle;whiteSpace=wrap;" parent="JKM60RJiILoYHjyXOHw2-86" vertex="1">
                    <mxGeometry x="30" width="1139" height="20" as="geometry"/>
                </mxCell>
                <mxCell id="JKM60RJiILoYHjyXOHw2-88" value="[Circuit Closed]" style="shape=line;dashed=1;whiteSpace=wrap;verticalAlign=top;labelPosition=center;verticalLabelPosition=middle;align=center;strokeColor=#B3B3B3;" parent="JKM60RJiILoYHjyXOHw2-86" vertex="1">
                    <mxGeometry y="207" width="1169" height="4" as="geometry"/>
                </mxCell>
                <mxCell id="JKM60RJiILoYHjyXOHw2-89" value="alt" style="shape=umlFrame;dashed=1;pointerEvents=0;dropTarget=0;strokeColor=#B3B3B3;height=20;width=30" parent="1" vertex="1">
                    <mxGeometry x="2834" y="203" width="1189" height="818" as="geometry"/>
                </mxCell>
                <mxCell id="JKM60RJiILoYHjyXOHw2-90" value="[Cache Hit]" style="text;strokeColor=none;fillColor=none;align=center;verticalAlign=middle;whiteSpace=wrap;" parent="JKM60RJiILoYHjyXOHw2-89" vertex="1">
                    <mxGeometry x="30" width="1159" height="20" as="geometry"/>
                </mxCell>
                <mxCell id="JKM60RJiILoYHjyXOHw2-91" value="[Cache Miss]" style="shape=line;dashed=1;whiteSpace=wrap;verticalAlign=top;labelPosition=center;verticalLabelPosition=middle;align=center;strokeColor=#B3B3B3;" parent="JKM60RJiILoYHjyXOHw2-89" vertex="1">
                    <mxGeometry y="155" width="1189" height="4" as="geometry"/>
                </mxCell>
                <mxCell id="JKM60RJiILoYHjyXOHw2-92" value="GET /inventory/products/{id}" style="verticalAlign=bottom;edgeStyle=elbowEdgeStyle;elbow=vertical;curved=0;rounded=0;endArrow=block;" parent="1" source="JKM60RJiILoYHjyXOHw2-80" target="JKM60RJiILoYHjyXOHw2-81" edge="1">
                    <mxGeometry relative="1" as="geometry">
                        <Array as="points">
                            <mxPoint x="3000" y="79"/>
                        </Array>
                    </mxGeometry>
                </mxCell>
                <mxCell id="JKM60RJiILoYHjyXOHw2-93" value="GetStockQuery" style="verticalAlign=bottom;edgeStyle=elbowEdgeStyle;elbow=vertical;curved=0;rounded=0;endArrow=block;" parent="1" source="JKM60RJiILoYHjyXOHw2-81" target="JKM60RJiILoYHjyXOHw2-82" edge="1">
                    <mxGeometry relative="1" as="geometry">
                        <Array as="points">
                            <mxPoint x="3254" y="131"/>
                        </Array>
                    </mxGeometry>
                </mxCell>
                <mxCell id="JKM60RJiILoYHjyXOHw2-94" value="Check cache" style="verticalAlign=bottom;edgeStyle=elbowEdgeStyle;elbow=vertical;curved=0;rounded=0;endArrow=block;" parent="1" source="JKM60RJiILoYHjyXOHw2-82" target="JKM60RJiILoYHjyXOHw2-83" edge="1">
                    <mxGeometry relative="1" as="geometry">
                        <Array as="points">
                            <mxPoint x="3491" y="183"/>
                        </Array>
                    </mxGeometry>
                </mxCell>
                <mxCell id="JKM60RJiILoYHjyXOHw2-95" value="Return cached data" style="verticalAlign=bottom;edgeStyle=elbowEdgeStyle;elbow=vertical;curved=0;rounded=0;dashed=1;dashPattern=2 3;endArrow=block;" parent="1" source="JKM60RJiILoYHjyXOHw2-83" target="JKM60RJiILoYHjyXOHw2-82" edge="1">
                    <mxGeometry relative="1" as="geometry">
                        <Array as="points">
                            <mxPoint x="3494" y="281"/>
                        </Array>
                    </mxGeometry>
                </mxCell>
                <mxCell id="JKM60RJiILoYHjyXOHw2-96" value="Stock data" style="verticalAlign=bottom;edgeStyle=elbowEdgeStyle;elbow=vertical;curved=0;rounded=0;dashed=1;dashPattern=2 3;endArrow=block;" parent="1" source="JKM60RJiILoYHjyXOHw2-82" target="JKM60RJiILoYHjyXOHw2-81" edge="1">
                    <mxGeometry relative="1" as="geometry">
                        <Array as="points">
                            <mxPoint x="3257" y="333"/>
                        </Array>
                    </mxGeometry>
                </mxCell>
                <mxCell id="JKM60RJiILoYHjyXOHw2-97" value="Not found" style="verticalAlign=bottom;edgeStyle=elbowEdgeStyle;elbow=vertical;curved=0;rounded=0;dashed=1;dashPattern=2 3;endArrow=block;" parent="1" source="JKM60RJiILoYHjyXOHw2-83" target="JKM60RJiILoYHjyXOHw2-82" edge="1">
                    <mxGeometry relative="1" as="geometry">
                        <Array as="points">
                            <mxPoint x="3494" y="431"/>
                        </Array>
                    </mxGeometry>
                </mxCell>
                <mxCell id="JKM60RJiILoYHjyXOHw2-98" value="Check state" style="verticalAlign=bottom;edgeStyle=elbowEdgeStyle;elbow=vertical;curved=0;rounded=0;endArrow=block;" parent="1" source="JKM60RJiILoYHjyXOHw2-82" target="JKM60RJiILoYHjyXOHw2-85" edge="1">
                    <mxGeometry relative="1" as="geometry">
                        <Array as="points">
                            <mxPoint x="3691" y="483"/>
                        </Array>
                    </mxGeometry>
                </mxCell>
                <mxCell id="JKM60RJiILoYHjyXOHw2-99" value="Circuit open" style="verticalAlign=bottom;edgeStyle=elbowEdgeStyle;elbow=vertical;curved=0;rounded=0;dashed=1;dashPattern=2 3;endArrow=block;" parent="1" source="JKM60RJiILoYHjyXOHw2-85" target="JKM60RJiILoYHjyXOHw2-82" edge="1">
                    <mxGeometry relative="1" as="geometry">
                        <Array as="points">
                            <mxPoint x="3694" y="581"/>
                        </Array>
                    </mxGeometry>
                </mxCell>
                <mxCell id="JKM60RJiILoYHjyXOHw2-100" value="503 Service Unavailable" style="verticalAlign=bottom;edgeStyle=elbowEdgeStyle;elbow=vertical;curved=0;rounded=0;dashed=1;dashPattern=2 3;endArrow=block;" parent="1" source="JKM60RJiILoYHjyXOHw2-82" target="JKM60RJiILoYHjyXOHw2-81" edge="1">
                    <mxGeometry relative="1" as="geometry">
                        <Array as="points">
                            <mxPoint x="3257" y="633"/>
                        </Array>
                    </mxGeometry>
                </mxCell>
                <mxCell id="JKM60RJiILoYHjyXOHw2-101" value="Fallback response" style="verticalAlign=bottom;edgeStyle=elbowEdgeStyle;elbow=vertical;curved=0;rounded=0;dashed=1;dashPattern=2 3;endArrow=block;" parent="1" source="JKM60RJiILoYHjyXOHw2-81" target="JKM60RJiILoYHjyXOHw2-80" edge="1">
                    <mxGeometry relative="1" as="geometry">
                        <Array as="points">
                            <mxPoint x="3003" y="685"/>
                        </Array>
                    </mxGeometry>
                </mxCell>
                <mxCell id="JKM60RJiILoYHjyXOHw2-102" value="Query stock" style="verticalAlign=bottom;edgeStyle=elbowEdgeStyle;elbow=vertical;curved=0;rounded=0;endArrow=block;" parent="1" source="JKM60RJiILoYHjyXOHw2-85" target="JKM60RJiILoYHjyXOHw2-84" edge="1">
                    <mxGeometry relative="1" as="geometry">
                        <Array as="points">
                            <mxPoint x="3914" y="783"/>
                        </Array>
                    </mxGeometry>
                </mxCell>
                <mxCell id="JKM60RJiILoYHjyXOHw2-103" value="Stock data" style="verticalAlign=bottom;edgeStyle=elbowEdgeStyle;elbow=vertical;curved=0;rounded=0;dashed=1;dashPattern=2 3;endArrow=block;" parent="1" source="JKM60RJiILoYHjyXOHw2-84" target="JKM60RJiILoYHjyXOHw2-85" edge="1">
                    <mxGeometry relative="1" as="geometry">
                        <Array as="points">
                            <mxPoint x="3911" y="835"/>
                        </Array>
                    </mxGeometry>
                </mxCell>
                <mxCell id="JKM60RJiILoYHjyXOHw2-104" value="Stock data" style="verticalAlign=bottom;edgeStyle=elbowEdgeStyle;elbow=vertical;curved=0;rounded=0;dashed=1;dashPattern=2 3;endArrow=block;" parent="1" source="JKM60RJiILoYHjyXOHw2-85" target="JKM60RJiILoYHjyXOHw2-82" edge="1">
                    <mxGeometry relative="1" as="geometry">
                        <Array as="points">
                            <mxPoint x="3694" y="887"/>
                        </Array>
                    </mxGeometry>
                </mxCell>
                <mxCell id="JKM60RJiILoYHjyXOHw2-105" value="Store in cache (TTL: 30s)" style="verticalAlign=bottom;edgeStyle=elbowEdgeStyle;elbow=vertical;curved=0;rounded=0;endArrow=block;" parent="1" source="JKM60RJiILoYHjyXOHw2-82" target="JKM60RJiILoYHjyXOHw2-83" edge="1">
                    <mxGeometry relative="1" as="geometry">
                        <Array as="points">
                            <mxPoint x="3491" y="939"/>
                        </Array>
                    </mxGeometry>
                </mxCell>
                <mxCell id="JKM60RJiILoYHjyXOHw2-106" value="Stock data" style="verticalAlign=bottom;edgeStyle=elbowEdgeStyle;elbow=vertical;curved=0;rounded=0;dashed=1;dashPattern=2 3;endArrow=block;" parent="1" source="JKM60RJiILoYHjyXOHw2-82" target="JKM60RJiILoYHjyXOHw2-81" edge="1">
                    <mxGeometry relative="1" as="geometry">
                        <Array as="points">
                            <mxPoint x="3257" y="991"/>
                        </Array>
                    </mxGeometry>
                </mxCell>
                <mxCell id="JKM60RJiILoYHjyXOHw2-107" value="200 OK + Stock data" style="verticalAlign=bottom;edgeStyle=elbowEdgeStyle;elbow=vertical;curved=0;rounded=0;dashed=1;dashPattern=2 3;endArrow=block;" parent="1" source="JKM60RJiILoYHjyXOHw2-81" target="JKM60RJiILoYHjyXOHw2-80" edge="1">
                    <mxGeometry relative="1" as="geometry">
                        <Array as="points">
                            <mxPoint x="3003" y="1063"/>
                        </Array>
                    </mxGeometry>
                </mxCell>
                <mxCell id="JKM60RJiILoYHjyXOHw2-109" value="&lt;font style=&quot;font-size: 20px;&quot;&gt;CQRS Flow&lt;/font&gt;" style="text;html=1;align=center;verticalAlign=middle;whiteSpace=wrap;rounded=0;" parent="1" vertex="1">
                    <mxGeometry x="2520" y="-130" width="390" height="63" as="geometry"/>
                </mxCell>
                <mxCell id="JKM60RJiILoYHjyXOHw2-110" value="Product" style="swimlane;fontStyle=1;align=center;verticalAlign=top;childLayout=stackLayout;horizontal=1;startSize=34.666666666666664;horizontalStack=0;resizeParent=1;resizeParentMax=0;resizeLast=0;collapsible=0;marginBottom=0;fillColor=#f5f5f5;fontColor=#333333;strokeColor=#666666;" parent="1" vertex="1">
                    <mxGeometry x="4485" y="477.27" width="160" height="217.66666666666666" as="geometry"/>
                </mxCell>
                <mxCell id="JKM60RJiILoYHjyXOHw2-111" value="+UUID id" style="text;strokeColor=none;fillColor=none;align=left;verticalAlign=top;spacingLeft=4;spacingRight=4;overflow=hidden;rotatable=0;points=[[0,0.5],[1,0.5]];portConstraint=eastwest;" parent="JKM60RJiILoYHjyXOHw2-110" vertex="1">
                    <mxGeometry y="34.666666666666664" width="160" height="35" as="geometry"/>
                </mxCell>
                <mxCell id="JKM60RJiILoYHjyXOHw2-112" value="+str sku" style="text;strokeColor=none;fillColor=none;align=left;verticalAlign=top;spacingLeft=4;spacingRight=4;overflow=hidden;rotatable=0;points=[[0,0.5],[1,0.5]];portConstraint=eastwest;" parent="JKM60RJiILoYHjyXOHw2-110" vertex="1">
                    <mxGeometry y="69.66666666666666" width="160" height="35" as="geometry"/>
                </mxCell>
                <mxCell id="JKM60RJiILoYHjyXOHw2-113" value="+str name" style="text;strokeColor=none;fillColor=none;align=left;verticalAlign=top;spacingLeft=4;spacingRight=4;overflow=hidden;rotatable=0;points=[[0,0.5],[1,0.5]];portConstraint=eastwest;" parent="JKM60RJiILoYHjyXOHw2-110" vertex="1">
                    <mxGeometry y="104.66666666666666" width="160" height="35" as="geometry"/>
                </mxCell>
                <mxCell id="JKM60RJiILoYHjyXOHw2-114" value="+Decimal price" style="text;strokeColor=none;fillColor=none;align=left;verticalAlign=top;spacingLeft=4;spacingRight=4;overflow=hidden;rotatable=0;points=[[0,0.5],[1,0.5]];portConstraint=eastwest;" parent="JKM60RJiILoYHjyXOHw2-110" vertex="1">
                    <mxGeometry y="139.66666666666666" width="160" height="35" as="geometry"/>
                </mxCell>
                <mxCell id="JKM60RJiILoYHjyXOHw2-115" style="line;strokeWidth=1;fillColor=none;align=left;verticalAlign=middle;spacingTop=-1;spacingLeft=3;spacingRight=3;rotatable=0;labelPosition=right;points=[];portConstraint=eastwest;strokeColor=inherit;" parent="JKM60RJiILoYHjyXOHw2-110" vertex="1">
                    <mxGeometry y="174.66666666666666" width="160" height="8" as="geometry"/>
                </mxCell>
                <mxCell id="JKM60RJiILoYHjyXOHw2-116" value="+validate()" style="text;strokeColor=none;fillColor=none;align=left;verticalAlign=top;spacingLeft=4;spacingRight=4;overflow=hidden;rotatable=0;points=[[0,0.5],[1,0.5]];portConstraint=eastwest;" parent="JKM60RJiILoYHjyXOHw2-110" vertex="1">
                    <mxGeometry y="182.66666666666666" width="160" height="35" as="geometry"/>
                </mxCell>
                <mxCell id="JKM60RJiILoYHjyXOHw2-168" style="edgeStyle=orthogonalEdgeStyle;rounded=0;orthogonalLoop=1;jettySize=auto;html=1;entryX=0.5;entryY=0;entryDx=0;entryDy=0;" parent="1" source="JKM60RJiILoYHjyXOHw2-117" target="JKM60RJiILoYHjyXOHw2-110" edge="1">
                    <mxGeometry relative="1" as="geometry"/>
                </mxCell>
                <mxCell id="JKM60RJiILoYHjyXOHw2-169" style="edgeStyle=orthogonalEdgeStyle;rounded=0;orthogonalLoop=1;jettySize=auto;html=1;entryX=0.5;entryY=0;entryDx=0;entryDy=0;" parent="1" source="JKM60RJiILoYHjyXOHw2-117" target="JKM60RJiILoYHjyXOHw2-130" edge="1">
                    <mxGeometry relative="1" as="geometry"/>
                </mxCell>
                <mxCell id="JKM60RJiILoYHjyXOHw2-171" style="edgeStyle=orthogonalEdgeStyle;rounded=0;orthogonalLoop=1;jettySize=auto;html=1;entryX=0.5;entryY=0;entryDx=0;entryDy=0;dashed=1;" parent="1" source="JKM60RJiILoYHjyXOHw2-117" target="JKM60RJiILoYHjyXOHw2-136" edge="1">
                    <mxGeometry relative="1" as="geometry"/>
                </mxCell>
                <mxCell id="JKM60RJiILoYHjyXOHw2-172" value="emits" style="edgeLabel;html=1;align=center;verticalAlign=middle;resizable=0;points=[];" parent="JKM60RJiILoYHjyXOHw2-171" vertex="1" connectable="0">
                    <mxGeometry x="0.3333" relative="1" as="geometry">
                        <mxPoint as="offset"/>
                    </mxGeometry>
                </mxCell>
                <mxCell id="JKM60RJiILoYHjyXOHw2-117" value="Inventory" style="swimlane;fontStyle=1;align=center;verticalAlign=top;childLayout=stackLayout;horizontal=1;startSize=29.333333333333332;horizontalStack=0;resizeParent=1;resizeParentMax=0;resizeLast=0;collapsible=0;marginBottom=0;fillColor=#f5f5f5;fontColor=#333333;strokeColor=#666666;" parent="1" vertex="1">
                    <mxGeometry x="4548" y="44.26999999999998" width="283" height="356.3333333333333" as="geometry"/>
                </mxCell>
                <mxCell id="JKM60RJiILoYHjyXOHw2-118" value="+UUID id" style="text;strokeColor=none;fillColor=none;align=left;verticalAlign=top;spacingLeft=4;spacingRight=4;overflow=hidden;rotatable=0;points=[[0,0.5],[1,0.5]];portConstraint=eastwest;" parent="JKM60RJiILoYHjyXOHw2-117" vertex="1">
                    <mxGeometry y="29.333333333333332" width="283" height="29" as="geometry"/>
                </mxCell>
                <mxCell id="JKM60RJiILoYHjyXOHw2-119" value="+UUID product_id" style="text;strokeColor=none;fillColor=none;align=left;verticalAlign=top;spacingLeft=4;spacingRight=4;overflow=hidden;rotatable=0;points=[[0,0.5],[1,0.5]];portConstraint=eastwest;" parent="JKM60RJiILoYHjyXOHw2-117" vertex="1">
                    <mxGeometry y="58.33333333333333" width="283" height="29" as="geometry"/>
                </mxCell>
                <mxCell id="JKM60RJiILoYHjyXOHw2-120" value="+UUID store_id" style="text;strokeColor=none;fillColor=none;align=left;verticalAlign=top;spacingLeft=4;spacingRight=4;overflow=hidden;rotatable=0;points=[[0,0.5],[1,0.5]];portConstraint=eastwest;" parent="JKM60RJiILoYHjyXOHw2-117" vertex="1">
                    <mxGeometry y="87.33333333333333" width="283" height="29" as="geometry"/>
                </mxCell>
                <mxCell id="JKM60RJiILoYHjyXOHw2-121" value="+StockQuantity quantity" style="text;strokeColor=none;fillColor=none;align=left;verticalAlign=top;spacingLeft=4;spacingRight=4;overflow=hidden;rotatable=0;points=[[0,0.5],[1,0.5]];portConstraint=eastwest;" parent="JKM60RJiILoYHjyXOHw2-117" vertex="1">
                    <mxGeometry y="116.33333333333333" width="283" height="29" as="geometry"/>
                </mxCell>
                <mxCell id="JKM60RJiILoYHjyXOHw2-122" value="+StockQuantity reserved" style="text;strokeColor=none;fillColor=none;align=left;verticalAlign=top;spacingLeft=4;spacingRight=4;overflow=hidden;rotatable=0;points=[[0,0.5],[1,0.5]];portConstraint=eastwest;" parent="JKM60RJiILoYHjyXOHw2-117" vertex="1">
                    <mxGeometry y="145.33333333333331" width="283" height="29" as="geometry"/>
                </mxCell>
                <mxCell id="JKM60RJiILoYHjyXOHw2-123" value="+int version" style="text;strokeColor=none;fillColor=none;align=left;verticalAlign=top;spacingLeft=4;spacingRight=4;overflow=hidden;rotatable=0;points=[[0,0.5],[1,0.5]];portConstraint=eastwest;" parent="JKM60RJiILoYHjyXOHw2-117" vertex="1">
                    <mxGeometry y="174.33333333333331" width="283" height="29" as="geometry"/>
                </mxCell>
                <mxCell id="JKM60RJiILoYHjyXOHw2-124" style="line;strokeWidth=1;fillColor=none;align=left;verticalAlign=middle;spacingTop=-1;spacingLeft=3;spacingRight=3;rotatable=0;labelPosition=right;points=[];portConstraint=eastwest;strokeColor=inherit;" parent="JKM60RJiILoYHjyXOHw2-117" vertex="1">
                    <mxGeometry y="203.33333333333331" width="283" height="8" as="geometry"/>
                </mxCell>
                <mxCell id="JKM60RJiILoYHjyXOHw2-125" value="+add_stock(quantity)" style="text;strokeColor=none;fillColor=none;align=left;verticalAlign=top;spacingLeft=4;spacingRight=4;overflow=hidden;rotatable=0;points=[[0,0.5],[1,0.5]];portConstraint=eastwest;" parent="JKM60RJiILoYHjyXOHw2-117" vertex="1">
                    <mxGeometry y="211.33333333333331" width="283" height="29" as="geometry"/>
                </mxCell>
                <mxCell id="JKM60RJiILoYHjyXOHw2-126" value="+reserve_stock(quantity)" style="text;strokeColor=none;fillColor=none;align=left;verticalAlign=top;spacingLeft=4;spacingRight=4;overflow=hidden;rotatable=0;points=[[0,0.5],[1,0.5]];portConstraint=eastwest;" parent="JKM60RJiILoYHjyXOHw2-117" vertex="1">
                    <mxGeometry y="240.33333333333331" width="283" height="29" as="geometry"/>
                </mxCell>
                <mxCell id="JKM60RJiILoYHjyXOHw2-127" value="+release_stock(quantity)" style="text;strokeColor=none;fillColor=none;align=left;verticalAlign=top;spacingLeft=4;spacingRight=4;overflow=hidden;rotatable=0;points=[[0,0.5],[1,0.5]];portConstraint=eastwest;" parent="JKM60RJiILoYHjyXOHw2-117" vertex="1">
                    <mxGeometry y="269.3333333333333" width="283" height="29" as="geometry"/>
                </mxCell>
                <mxCell id="JKM60RJiILoYHjyXOHw2-128" value="+commit_reservation(quantity)" style="text;strokeColor=none;fillColor=none;align=left;verticalAlign=top;spacingLeft=4;spacingRight=4;overflow=hidden;rotatable=0;points=[[0,0.5],[1,0.5]];portConstraint=eastwest;" parent="JKM60RJiILoYHjyXOHw2-117" vertex="1">
                    <mxGeometry y="298.3333333333333" width="283" height="29" as="geometry"/>
                </mxCell>
                <mxCell id="JKM60RJiILoYHjyXOHw2-129" value="+get_available()" style="text;strokeColor=none;fillColor=none;align=left;verticalAlign=top;spacingLeft=4;spacingRight=4;overflow=hidden;rotatable=0;points=[[0,0.5],[1,0.5]];portConstraint=eastwest;" parent="JKM60RJiILoYHjyXOHw2-117" vertex="1">
                    <mxGeometry y="327.3333333333333" width="283" height="29" as="geometry"/>
                </mxCell>
                <mxCell id="JKM60RJiILoYHjyXOHw2-130" value="&lt;&lt;ValueObject&gt;&gt;&#xa;StockQuantity" style="swimlane;fontStyle=1;align=center;verticalAlign=top;childLayout=stackLayout;horizontal=1;startSize=56.727272727272734;horizontalStack=0;resizeParent=1;resizeParentMax=0;resizeLast=0;collapsible=0;marginBottom=0;fillColor=#f5f5f5;fontColor=#333333;strokeColor=#666666;" parent="1" vertex="1">
                    <mxGeometry x="4695" y="477.27" width="195" height="216.72727272727275" as="geometry"/>
                </mxCell>
                <mxCell id="JKM60RJiILoYHjyXOHw2-131" value="+int value" style="text;strokeColor=none;fillColor=none;align=left;verticalAlign=top;spacingLeft=4;spacingRight=4;overflow=hidden;rotatable=0;points=[[0,0.5],[1,0.5]];portConstraint=eastwest;" parent="JKM60RJiILoYHjyXOHw2-130" vertex="1">
                    <mxGeometry y="56.727272727272734" width="195" height="38" as="geometry"/>
                </mxCell>
                <mxCell id="JKM60RJiILoYHjyXOHw2-132" style="line;strokeWidth=1;fillColor=none;align=left;verticalAlign=middle;spacingTop=-1;spacingLeft=3;spacingRight=3;rotatable=0;labelPosition=right;points=[];portConstraint=eastwest;strokeColor=inherit;" parent="JKM60RJiILoYHjyXOHw2-130" vertex="1">
                    <mxGeometry y="94.72727272727273" width="195" height="8" as="geometry"/>
                </mxCell>
                <mxCell id="JKM60RJiILoYHjyXOHw2-133" value="+validate()" style="text;strokeColor=none;fillColor=none;align=left;verticalAlign=top;spacingLeft=4;spacingRight=4;overflow=hidden;rotatable=0;points=[[0,0.5],[1,0.5]];portConstraint=eastwest;" parent="JKM60RJiILoYHjyXOHw2-130" vertex="1">
                    <mxGeometry y="102.72727272727273" width="195" height="38" as="geometry"/>
                </mxCell>
                <mxCell id="JKM60RJiILoYHjyXOHw2-134" value="+add(other)" style="text;strokeColor=none;fillColor=none;align=left;verticalAlign=top;spacingLeft=4;spacingRight=4;overflow=hidden;rotatable=0;points=[[0,0.5],[1,0.5]];portConstraint=eastwest;" parent="JKM60RJiILoYHjyXOHw2-130" vertex="1">
                    <mxGeometry y="140.72727272727275" width="195" height="38" as="geometry"/>
                </mxCell>
                <mxCell id="JKM60RJiILoYHjyXOHw2-135" value="+subtract(other)" style="text;strokeColor=none;fillColor=none;align=left;verticalAlign=top;spacingLeft=4;spacingRight=4;overflow=hidden;rotatable=0;points=[[0,0.5],[1,0.5]];portConstraint=eastwest;" parent="JKM60RJiILoYHjyXOHw2-130" vertex="1">
                    <mxGeometry y="178.72727272727275" width="195" height="38" as="geometry"/>
                </mxCell>
                <mxCell id="JKM60RJiILoYHjyXOHw2-136" value="&lt;&lt;Abstract&gt;&gt;&#xa;DomainEvent" style="swimlane;fontStyle=1;align=center;verticalAlign=top;childLayout=stackLayout;horizontal=1;startSize=52;horizontalStack=0;resizeParent=1;resizeParentMax=0;resizeLast=0;collapsible=0;marginBottom=0;fillColor=#f5f5f5;fontColor=#333333;strokeColor=#666666;" parent="1" vertex="1">
                    <mxGeometry x="4940" y="477.27" width="228" height="209" as="geometry"/>
                </mxCell>
                <mxCell id="JKM60RJiILoYHjyXOHw2-137" value="+UUID event_id" style="text;strokeColor=none;fillColor=none;align=left;verticalAlign=top;spacingLeft=4;spacingRight=4;overflow=hidden;rotatable=0;points=[[0,0.5],[1,0.5]];portConstraint=eastwest;" parent="JKM60RJiILoYHjyXOHw2-136" vertex="1">
                    <mxGeometry y="52" width="228" height="35" as="geometry"/>
                </mxCell>
                <mxCell id="JKM60RJiILoYHjyXOHw2-138" value="+datetime timestamp" style="text;strokeColor=none;fillColor=none;align=left;verticalAlign=top;spacingLeft=4;spacingRight=4;overflow=hidden;rotatable=0;points=[[0,0.5],[1,0.5]];portConstraint=eastwest;" parent="JKM60RJiILoYHjyXOHw2-136" vertex="1">
                    <mxGeometry y="87" width="228" height="35" as="geometry"/>
                </mxCell>
                <mxCell id="JKM60RJiILoYHjyXOHw2-139" value="+int version" style="text;strokeColor=none;fillColor=none;align=left;verticalAlign=top;spacingLeft=4;spacingRight=4;overflow=hidden;rotatable=0;points=[[0,0.5],[1,0.5]];portConstraint=eastwest;" parent="JKM60RJiILoYHjyXOHw2-136" vertex="1">
                    <mxGeometry y="122" width="228" height="35" as="geometry"/>
                </mxCell>
                <mxCell id="JKM60RJiILoYHjyXOHw2-140" value="+dict metadata" style="text;strokeColor=none;fillColor=none;align=left;verticalAlign=top;spacingLeft=4;spacingRight=4;overflow=hidden;rotatable=0;points=[[0,0.5],[1,0.5]];portConstraint=eastwest;" parent="JKM60RJiILoYHjyXOHw2-136" vertex="1">
                    <mxGeometry y="157" width="228" height="35" as="geometry"/>
                </mxCell>
                <mxCell id="JKM60RJiILoYHjyXOHw2-141" style="line;strokeWidth=1;fillColor=none;align=left;verticalAlign=middle;spacingTop=-1;spacingLeft=3;spacingRight=3;rotatable=0;labelPosition=right;points=[];portConstraint=eastwest;strokeColor=inherit;" parent="JKM60RJiILoYHjyXOHw2-136" vertex="1">
                    <mxGeometry y="192" width="228" height="17" as="geometry"/>
                </mxCell>
                <mxCell id="JKM60RJiILoYHjyXOHw2-175" style="edgeStyle=orthogonalEdgeStyle;rounded=0;orthogonalLoop=1;jettySize=auto;html=1;entryX=0;entryY=0.5;entryDx=0;entryDy=0;endArrow=block;endFill=0;" parent="1" source="JKM60RJiILoYHjyXOHw2-142" target="JKM60RJiILoYHjyXOHw2-138" edge="1">
                    <mxGeometry relative="1" as="geometry">
                        <Array as="points">
                            <mxPoint x="4668" y="710"/>
                            <mxPoint x="4910" y="710"/>
                            <mxPoint x="4910" y="582"/>
                        </Array>
                    </mxGeometry>
                </mxCell>
                <mxCell id="JKM60RJiILoYHjyXOHw2-142" value="StockAddedEvent" style="swimlane;fontStyle=1;align=center;verticalAlign=top;childLayout=stackLayout;horizontal=1;startSize=35.55555555555556;horizontalStack=0;resizeParent=1;resizeParentMax=0;resizeLast=0;collapsible=0;marginBottom=0;fillColor=#f5f5f5;fontColor=#333333;strokeColor=#666666;" parent="1" vertex="1">
                    <mxGeometry x="4561" y="755.27" width="215" height="161.55555555555554" as="geometry"/>
                </mxCell>
                <mxCell id="JKM60RJiILoYHjyXOHw2-143" value="+UUID product_id" style="text;strokeColor=none;fillColor=none;align=left;verticalAlign=top;spacingLeft=4;spacingRight=4;overflow=hidden;rotatable=0;points=[[0,0.5],[1,0.5]];portConstraint=eastwest;" parent="JKM60RJiILoYHjyXOHw2-142" vertex="1">
                    <mxGeometry y="35.55555555555556" width="215" height="36" as="geometry"/>
                </mxCell>
                <mxCell id="JKM60RJiILoYHjyXOHw2-144" value="+UUID store_id" style="text;strokeColor=none;fillColor=none;align=left;verticalAlign=top;spacingLeft=4;spacingRight=4;overflow=hidden;rotatable=0;points=[[0,0.5],[1,0.5]];portConstraint=eastwest;" parent="JKM60RJiILoYHjyXOHw2-142" vertex="1">
                    <mxGeometry y="71.55555555555556" width="215" height="36" as="geometry"/>
                </mxCell>
                <mxCell id="JKM60RJiILoYHjyXOHw2-145" value="+int quantity" style="text;strokeColor=none;fillColor=none;align=left;verticalAlign=top;spacingLeft=4;spacingRight=4;overflow=hidden;rotatable=0;points=[[0,0.5],[1,0.5]];portConstraint=eastwest;" parent="JKM60RJiILoYHjyXOHw2-142" vertex="1">
                    <mxGeometry y="107.55555555555556" width="215" height="36" as="geometry"/>
                </mxCell>
                <mxCell id="JKM60RJiILoYHjyXOHw2-146" style="line;strokeWidth=1;fillColor=none;align=left;verticalAlign=middle;spacingTop=-1;spacingLeft=3;spacingRight=3;rotatable=0;labelPosition=right;points=[];portConstraint=eastwest;strokeColor=inherit;" parent="JKM60RJiILoYHjyXOHw2-142" vertex="1">
                    <mxGeometry y="143.55555555555554" width="215" height="18" as="geometry"/>
                </mxCell>
                <mxCell id="JKM60RJiILoYHjyXOHw2-174" style="edgeStyle=orthogonalEdgeStyle;rounded=0;orthogonalLoop=1;jettySize=auto;html=1;entryX=0.5;entryY=1;entryDx=0;entryDy=0;endArrow=block;endFill=0;" parent="1" source="JKM60RJiILoYHjyXOHw2-147" target="JKM60RJiILoYHjyXOHw2-136" edge="1">
                    <mxGeometry relative="1" as="geometry"/>
                </mxCell>
                <mxCell id="JKM60RJiILoYHjyXOHw2-147" value="StockReservedEvent" style="swimlane;fontStyle=1;align=center;verticalAlign=top;childLayout=stackLayout;horizontal=1;startSize=33.45454545454545;horizontalStack=0;resizeParent=1;resizeParentMax=0;resizeLast=0;collapsible=0;marginBottom=0;fillColor=#f5f5f5;fontColor=#333333;strokeColor=#666666;" parent="1" vertex="1">
                    <mxGeometry x="4826" y="743.27" width="251" height="182.45454545454544" as="geometry"/>
                </mxCell>
                <mxCell id="JKM60RJiILoYHjyXOHw2-148" value="+UUID product_id" style="text;strokeColor=none;fillColor=none;align=left;verticalAlign=top;spacingLeft=4;spacingRight=4;overflow=hidden;rotatable=0;points=[[0,0.5],[1,0.5]];portConstraint=eastwest;" parent="JKM60RJiILoYHjyXOHw2-147" vertex="1">
                    <mxGeometry y="33.45454545454545" width="251" height="33" as="geometry"/>
                </mxCell>
                <mxCell id="JKM60RJiILoYHjyXOHw2-149" value="+UUID store_id" style="text;strokeColor=none;fillColor=none;align=left;verticalAlign=top;spacingLeft=4;spacingRight=4;overflow=hidden;rotatable=0;points=[[0,0.5],[1,0.5]];portConstraint=eastwest;" parent="JKM60RJiILoYHjyXOHw2-147" vertex="1">
                    <mxGeometry y="66.45454545454545" width="251" height="33" as="geometry"/>
                </mxCell>
                <mxCell id="JKM60RJiILoYHjyXOHw2-150" value="+int quantity" style="text;strokeColor=none;fillColor=none;align=left;verticalAlign=top;spacingLeft=4;spacingRight=4;overflow=hidden;rotatable=0;points=[[0,0.5],[1,0.5]];portConstraint=eastwest;" parent="JKM60RJiILoYHjyXOHw2-147" vertex="1">
                    <mxGeometry y="99.45454545454545" width="251" height="33" as="geometry"/>
                </mxCell>
                <mxCell id="JKM60RJiILoYHjyXOHw2-151" value="+UUID reservation_id" style="text;strokeColor=none;fillColor=none;align=left;verticalAlign=top;spacingLeft=4;spacingRight=4;overflow=hidden;rotatable=0;points=[[0,0.5],[1,0.5]];portConstraint=eastwest;" parent="JKM60RJiILoYHjyXOHw2-147" vertex="1">
                    <mxGeometry y="132.45454545454544" width="251" height="33" as="geometry"/>
                </mxCell>
                <mxCell id="JKM60RJiILoYHjyXOHw2-152" style="line;strokeWidth=1;fillColor=none;align=left;verticalAlign=middle;spacingTop=-1;spacingLeft=3;spacingRight=3;rotatable=0;labelPosition=right;points=[];portConstraint=eastwest;strokeColor=inherit;" parent="JKM60RJiILoYHjyXOHw2-147" vertex="1">
                    <mxGeometry y="165.45454545454544" width="251" height="17" as="geometry"/>
                </mxCell>
                <mxCell id="JKM60RJiILoYHjyXOHw2-173" style="edgeStyle=orthogonalEdgeStyle;rounded=0;orthogonalLoop=1;jettySize=auto;html=1;entryX=1;entryY=0.5;entryDx=0;entryDy=0;endArrow=block;endFill=0;" parent="1" source="JKM60RJiILoYHjyXOHw2-153" target="JKM60RJiILoYHjyXOHw2-138" edge="1">
                    <mxGeometry relative="1" as="geometry"/>
                </mxCell>
                <mxCell id="JKM60RJiILoYHjyXOHw2-153" value="StockReleasedEvent" style="swimlane;fontStyle=1;align=center;verticalAlign=top;childLayout=stackLayout;horizontal=1;startSize=33.45454545454545;horizontalStack=0;resizeParent=1;resizeParentMax=0;resizeLast=0;collapsible=0;marginBottom=0;fillColor=#f5f5f5;fontColor=#333333;strokeColor=#666666;" parent="1" vertex="1">
                    <mxGeometry x="5126" y="743.27" width="250" height="182.45454545454544" as="geometry"/>
                </mxCell>
                <mxCell id="JKM60RJiILoYHjyXOHw2-154" value="+UUID product_id" style="text;strokeColor=none;fillColor=none;align=left;verticalAlign=top;spacingLeft=4;spacingRight=4;overflow=hidden;rotatable=0;points=[[0,0.5],[1,0.5]];portConstraint=eastwest;" parent="JKM60RJiILoYHjyXOHw2-153" vertex="1">
                    <mxGeometry y="33.45454545454545" width="250" height="33" as="geometry"/>
                </mxCell>
                <mxCell id="JKM60RJiILoYHjyXOHw2-155" value="+UUID store_id" style="text;strokeColor=none;fillColor=none;align=left;verticalAlign=top;spacingLeft=4;spacingRight=4;overflow=hidden;rotatable=0;points=[[0,0.5],[1,0.5]];portConstraint=eastwest;" parent="JKM60RJiILoYHjyXOHw2-153" vertex="1">
                    <mxGeometry y="66.45454545454545" width="250" height="33" as="geometry"/>
                </mxCell>
                <mxCell id="JKM60RJiILoYHjyXOHw2-156" value="+int quantity" style="text;strokeColor=none;fillColor=none;align=left;verticalAlign=top;spacingLeft=4;spacingRight=4;overflow=hidden;rotatable=0;points=[[0,0.5],[1,0.5]];portConstraint=eastwest;" parent="JKM60RJiILoYHjyXOHw2-153" vertex="1">
                    <mxGeometry y="99.45454545454545" width="250" height="33" as="geometry"/>
                </mxCell>
                <mxCell id="JKM60RJiILoYHjyXOHw2-157" value="+UUID reservation_id" style="text;strokeColor=none;fillColor=none;align=left;verticalAlign=top;spacingLeft=4;spacingRight=4;overflow=hidden;rotatable=0;points=[[0,0.5],[1,0.5]];portConstraint=eastwest;" parent="JKM60RJiILoYHjyXOHw2-153" vertex="1">
                    <mxGeometry y="132.45454545454544" width="250" height="33" as="geometry"/>
                </mxCell>
                <mxCell id="JKM60RJiILoYHjyXOHw2-158" style="line;strokeWidth=1;fillColor=none;align=left;verticalAlign=middle;spacingTop=-1;spacingLeft=3;spacingRight=3;rotatable=0;labelPosition=right;points=[];portConstraint=eastwest;strokeColor=inherit;" parent="JKM60RJiILoYHjyXOHw2-153" vertex="1">
                    <mxGeometry y="165.45454545454544" width="250" height="17" as="geometry"/>
                </mxCell>
                <mxCell id="JKM60RJiILoYHjyXOHw2-166" value="&lt;span style=&quot;font-size: 20px;&quot;&gt;Domain Model&lt;/span&gt;" style="text;html=1;align=center;verticalAlign=middle;whiteSpace=wrap;rounded=0;" parent="1" vertex="1">
                    <mxGeometry x="4130" y="-130" width="390" height="63" as="geometry"/>
                </mxCell>
            </root>
        </mxGraphModel>
    </diagram>
</mxfile>